<svg width="331" height="26" viewBox="0 0 331 26" fill="none" xmlns="http://www.w3.org/2000/svg">
<path d="M0.980319 25.028V25C1.76432 25 2.40832 24.832 2.96832 24.496C3.52832 24.16 3.86432 23.6 4.03232 22.872C4.14432 22.424 4.22832 21.64 4.22832 20.52V9.124C4.22832 8.48 4.20032 7.892 4.14432 7.36C4.08832 6.828 3.94832 6.352 3.72432 5.96C3.50032 5.568 3.16432 5.26 2.74432 5.036C2.29632 4.812 1.70832 4.7 0.980319 4.644V4.616H10.8083V4.644C10.0803 4.7 9.49232 4.812 9.07232 5.036C8.62432 5.26 8.31632 5.568 8.09232 5.932C7.86832 6.324 7.70032 6.772 7.64432 7.304C7.58832 7.864 7.56032 8.452 7.56032 9.124V18.028C7.56032 18.924 7.56032 19.82 7.61632 20.66C7.67232 21.5 7.81232 22.2 8.09232 22.732C8.28832 23.18 8.54032 23.516 8.84832 23.768C9.15632 24.02 9.49232 24.216 9.88432 24.328C10.2483 24.468 10.6683 24.552 11.1163 24.58C11.5643 24.636 12.0123 24.636 12.5163 24.636C13.5523 24.636 14.4483 24.552 15.1763 24.328C15.9043 24.132 16.5483 23.824 17.0523 23.404C17.5563 22.984 17.9763 22.452 18.3123 21.808C18.6203 21.164 18.8723 20.408 19.0963 19.512V25.028H0.980319ZM39.299 24.58C39.663 24.356 39.915 24.076 40.055 23.768C40.167 23.488 40.223 23.152 40.195 22.816C40.167 22.48 40.083 22.144 39.943 21.808L39.551 20.772L38.767 18.784L37.899 16.684L34.511 8.2L36.191 4.588L42.883 20.744C43.163 21.472 43.471 22.172 43.807 22.844C44.143 23.544 44.535 24.048 44.983 24.384C45.263 24.608 45.571 24.748 45.907 24.804C46.243 24.888 46.607 24.944 47.055 25H37.647C38.403 24.916 38.963 24.776 39.299 24.58ZM37.255 17.3H31.683L30.535 20.24C30.367 20.632 30.227 21.024 30.115 21.416C29.975 21.836 29.891 22.228 29.891 22.62C29.863 23.012 29.919 23.348 30.031 23.684C30.143 24.02 30.395 24.328 30.759 24.552C31.095 24.804 31.543 24.944 32.103 25H25.803C26.615 24.944 27.287 24.608 27.791 24.02C28.295 23.46 28.715 22.76 29.107 21.976C29.247 21.668 29.415 21.276 29.611 20.8L30.283 19.148L34.063 9.348L34.427 10.188L31.907 16.684H37.031L37.255 17.3ZM57.5552 4.616V4.644C57.0512 4.7 56.6032 4.756 56.2112 4.868C55.8192 4.98 55.4552 5.204 55.1472 5.54C54.6992 6.016 54.4472 6.576 54.3912 7.22C54.3352 7.864 54.3072 8.62 54.3072 9.488V17.356C54.3072 18.392 54.3352 19.288 54.3912 20.044C54.4472 20.828 54.6992 21.528 55.1192 22.2C55.6512 23.068 56.2952 23.656 57.0232 23.992C57.7512 24.328 58.6472 24.496 59.7112 24.496C60.2712 24.496 60.8592 24.44 61.5032 24.328C62.1472 24.216 62.7632 24.048 63.3792 23.796C63.9672 23.572 64.4992 23.264 65.0032 22.872C65.4792 22.48 65.8432 22.032 66.0952 21.5C66.3192 20.968 66.4592 20.324 66.4872 19.568C66.5152 18.812 66.5432 17.916 66.5432 16.908V9.152C66.5432 8.48 66.4872 7.892 66.4312 7.36C66.3752 6.828 66.2352 6.352 66.0112 5.96C65.7872 5.568 65.4512 5.26 65.0312 5.036C64.5832 4.812 64.0232 4.7 63.2952 4.644V4.616H70.4072V4.644C69.6792 4.7 69.0912 4.812 68.6712 5.036C68.2232 5.26 67.9152 5.568 67.6912 5.96C67.4672 6.352 67.2992 6.8 67.2432 7.332C67.1872 7.892 67.1592 8.48 67.1592 9.152V18C67.1592 18.616 67.1312 19.148 67.1032 19.624C67.0752 20.1 67.0192 20.548 66.9072 20.94C66.7952 21.332 66.6272 21.724 66.4032 22.06C66.1792 22.396 65.8712 22.732 65.5072 23.068C63.9952 24.356 61.8672 25 59.0672 25C58.0592 25 57.1072 24.916 56.2112 24.748C55.2872 24.58 54.4752 24.328 53.7472 23.936C53.0192 23.572 52.4312 23.068 51.9552 22.452C51.4792 21.836 51.1712 21.052 51.0592 20.1C51.0032 19.652 50.9752 18.812 50.9752 17.636V9.152C50.9752 8.368 50.9192 7.696 50.8632 7.08C50.7792 6.492 50.5272 5.988 50.1352 5.54C49.7992 5.204 49.4352 4.98 49.0712 4.868C48.6792 4.756 48.2312 4.7 47.7272 4.644V4.616H57.5552ZM82.3831 20.492C82.3831 21.164 82.4111 21.78 82.4671 22.312C82.5231 22.872 82.6911 23.32 82.9151 23.712C83.1391 24.104 83.4471 24.384 83.8951 24.608C84.3151 24.832 84.9031 24.972 85.6591 25V25.028H75.8311V25C76.5591 24.972 77.1471 24.832 77.5951 24.608C78.0431 24.384 78.3511 24.048 78.5751 23.656C78.7711 23.264 78.9111 22.816 78.9671 22.284C79.0231 21.752 79.0511 21.164 79.0511 20.492V9.124C79.0511 8.452 79.0231 7.864 78.9671 7.304C78.9111 6.772 78.7711 6.324 78.5471 5.932C78.3231 5.54 77.9871 5.232 77.5671 5.008C77.1191 4.784 76.5591 4.672 75.8311 4.616H87.0871C88.0671 4.616 88.9631 4.756 89.7471 5.036C90.5311 5.316 91.2031 5.904 91.8191 6.8C92.2111 7.416 92.4911 8.06 92.6031 8.788C92.7151 9.516 92.6871 10.216 92.5191 10.916C92.3231 11.616 91.9871 12.26 91.5111 12.848C91.0351 13.436 90.3911 13.884 89.6071 14.192C89.3831 14.304 89.1031 14.388 88.8231 14.472C88.5151 14.584 88.1791 14.668 87.8151 14.724C88.2631 14.92 88.5991 15.116 88.8791 15.312C89.1591 15.508 89.3831 15.732 89.5791 15.984C89.7471 16.236 89.9151 16.516 90.0831 16.852L90.6711 18.056L91.4551 19.708L92.3231 21.444C92.6031 22.004 92.9111 22.536 93.1911 23.012C93.4711 23.488 93.6951 23.852 93.9191 24.076C94.1711 24.412 94.4231 24.636 94.6751 24.748C94.8991 24.888 95.2351 24.972 95.6551 25V25.028H90.4471C90.2231 24.608 89.9991 24.104 89.7751 23.544L88.9911 21.752L88.0951 19.876C87.7871 19.26 87.4791 18.672 87.1431 18.112C86.8071 17.552 86.4991 17.076 86.1911 16.628C85.8551 16.18 85.5471 15.844 85.2391 15.62C84.7911 15.312 84.3431 15.144 83.8951 15.116C83.4191 15.088 82.9151 15.06 82.3831 15.06V20.492ZM82.3831 14.696H83.8671C84.3151 14.696 84.7631 14.668 85.1551 14.612C85.5471 14.556 85.9391 14.444 86.3031 14.276C86.6391 14.136 86.9751 13.912 87.3111 13.604C88.1511 12.792 88.6831 11.812 88.8511 10.692C89.0191 9.572 88.9071 8.508 88.4591 7.472C88.1511 6.8 87.7871 6.296 87.3951 5.96C86.9751 5.624 86.4991 5.372 85.9951 5.232C85.4911 5.092 84.9311 5.008 84.3151 5.008C83.6991 5.008 83.0551 4.98 82.3831 4.98V14.696ZM114.15 24.58C114.514 24.356 114.766 24.076 114.906 23.768C115.018 23.488 115.074 23.152 115.046 22.816C115.018 22.48 114.934 22.144 114.794 21.808L114.402 20.772L113.618 18.784L112.75 16.684L109.362 8.2L111.042 4.588L117.734 20.744C118.014 21.472 118.322 22.172 118.658 22.844C118.994 23.544 119.386 24.048 119.834 24.384C120.114 24.608 120.422 24.748 120.758 24.804C121.094 24.888 121.458 24.944 121.906 25H112.498C113.254 24.916 113.814 24.776 114.15 24.58ZM112.106 17.3H106.534L105.386 20.24C105.218 20.632 105.078 21.024 104.966 21.416C104.826 21.836 104.742 22.228 104.742 22.62C104.714 23.012 104.77 23.348 104.882 23.684C104.994 24.02 105.246 24.328 105.61 24.552C105.946 24.804 106.394 24.944 106.954 25H100.654C101.466 24.944 102.138 24.608 102.642 24.02C103.146 23.46 103.566 22.76 103.958 21.976C104.098 21.668 104.266 21.276 104.462 20.8L105.134 19.148L108.914 9.348L109.278 10.188L106.758 16.684H111.882L112.106 17.3ZM148.389 11.476C148.809 11.14 149.145 10.804 149.397 10.524C149.649 10.244 149.901 9.88 150.125 9.432C150.377 8.872 150.545 8.228 150.629 7.528C150.685 6.856 150.657 6.212 150.489 5.624C150.321 5.036 150.013 4.532 149.593 4.14C149.173 3.748 148.613 3.552 147.913 3.552C147.381 3.552 146.933 3.692 146.597 3.916C146.233 4.14 145.953 4.448 145.785 4.812C145.589 5.176 145.505 5.596 145.505 6.044C145.505 6.492 145.589 6.968 145.785 7.416C145.897 7.696 146.037 8.032 146.261 8.368C146.457 8.732 146.681 9.096 146.933 9.46C147.157 9.824 147.409 10.188 147.689 10.524L148.389 11.476ZM146.457 13.184C145.701 13.632 145.113 14.22 144.693 14.948C144.245 15.676 143.965 16.432 143.825 17.244C143.685 18.084 143.685 18.896 143.797 19.708C143.909 20.548 144.161 21.276 144.553 21.948C144.945 22.62 145.449 23.18 146.065 23.6C146.681 24.02 147.437 24.216 148.277 24.216C148.781 24.216 149.257 24.16 149.649 23.992C150.041 23.852 150.405 23.656 150.741 23.376C151.049 23.124 151.357 22.816 151.637 22.48C151.917 22.144 152.169 21.752 152.449 21.332L146.457 13.184ZM148.669 11.812L153.821 19.008L154.493 17.72C154.717 17.272 154.941 16.852 155.137 16.404C155.305 15.984 155.473 15.564 155.585 15.172C155.697 14.78 155.781 14.388 155.781 14.052C155.781 13.044 155.053 12.456 153.625 12.26H159.673C159.225 12.316 158.861 12.372 158.553 12.484C158.245 12.596 157.937 12.792 157.657 13.044C157.433 13.24 157.237 13.492 157.041 13.8C156.817 14.108 156.621 14.444 156.397 14.808C156.173 15.2 155.977 15.592 155.781 15.984L155.221 17.188C154.969 17.72 154.577 18.448 154.073 19.344L154.997 20.492C155.333 20.912 155.725 21.332 156.117 21.724C156.509 22.144 156.901 22.536 157.293 22.872C157.685 23.208 158.077 23.488 158.441 23.656C159.141 24.048 159.757 24.16 160.317 23.936C160.877 23.74 161.297 23.236 161.633 22.452C161.297 23.712 160.709 24.524 159.869 24.916C159.001 25.308 157.993 25.308 156.817 24.888C155.977 24.608 155.249 24.188 154.605 23.6C153.933 23.04 153.317 22.368 152.729 21.64C152.225 22.368 151.749 22.984 151.301 23.46C150.853 23.964 150.237 24.356 149.509 24.692C148.641 25.084 147.717 25.252 146.765 25.224C145.785 25.224 144.889 25 144.077 24.58C143.237 24.16 142.565 23.544 142.033 22.732C141.473 21.948 141.221 20.94 141.221 19.764C141.221 18.672 141.445 17.692 141.893 16.796C142.341 15.9 142.985 15.116 143.825 14.388C144.161 14.108 144.525 13.828 144.861 13.604L146.121 12.764C145.701 12.204 145.309 11.644 144.973 11.028C144.609 10.44 144.329 9.852 144.105 9.236C143.881 8.62 143.769 8.004 143.769 7.388C143.769 6.772 143.909 6.156 144.217 5.54C144.609 4.7 145.169 4.112 145.869 3.748C146.569 3.384 147.381 3.188 148.333 3.188C149.341 3.188 150.181 3.384 150.853 3.776C151.525 4.168 152.001 4.672 152.337 5.26C152.645 5.848 152.785 6.492 152.757 7.164C152.701 7.836 152.505 8.48 152.113 9.04C151.889 9.376 151.637 9.656 151.357 9.908C151.077 10.16 150.769 10.384 150.461 10.608L149.537 11.224L148.669 11.812ZM194.436 24.58C194.8 24.356 195.052 24.076 195.192 23.768C195.304 23.488 195.36 23.152 195.332 22.816C195.304 22.48 195.22 22.144 195.08 21.808L194.688 20.772L193.904 18.784L193.036 16.684L189.648 8.2L191.328 4.588L198.02 20.744C198.3 21.472 198.608 22.172 198.944 22.844C199.28 23.544 199.672 24.048 200.12 24.384C200.4 24.608 200.708 24.748 201.044 24.804C201.38 24.888 201.744 24.944 202.192 25H192.784C193.54 24.916 194.1 24.776 194.436 24.58ZM192.392 17.3H186.82L185.672 20.24C185.504 20.632 185.364 21.024 185.252 21.416C185.112 21.836 185.028 22.228 185.028 22.62C185 23.012 185.056 23.348 185.168 23.684C185.28 24.02 185.532 24.328 185.896 24.552C186.232 24.804 186.68 24.944 187.24 25H180.94C181.752 24.944 182.424 24.608 182.928 24.02C183.432 23.46 183.852 22.76 184.244 21.976C184.384 21.668 184.552 21.276 184.748 20.8L185.42 19.148L189.2 9.348L189.564 10.188L187.044 16.684H192.168L192.392 17.3ZM210.612 7.08V20.52C210.612 21.192 210.64 21.808 210.696 22.34C210.752 22.872 210.92 23.32 211.144 23.712C211.368 24.104 211.676 24.384 212.124 24.608C212.544 24.832 213.132 24.972 213.86 25V25.028H206.748V25C207.476 24.972 208.035 24.832 208.484 24.608C208.904 24.384 209.24 24.104 209.464 23.712C209.688 23.32 209.828 22.872 209.883 22.34C209.94 21.808 209.996 21.192 209.996 20.52V9.124C209.996 8.452 209.94 7.864 209.883 7.304C209.828 6.772 209.688 6.324 209.464 5.932C209.24 5.54 208.904 5.26 208.484 5.036C208.035 4.812 207.476 4.7 206.748 4.644V4.616H212.964L225.2 20.296V9.124C225.2 8.452 225.172 7.864 225.116 7.332C225.06 6.8 224.92 6.352 224.696 5.96C224.472 5.568 224.136 5.26 223.716 5.036C223.268 4.812 222.708 4.7 221.98 4.644V4.616H229.092V4.644C228.308 4.644 227.636 4.84 227.076 5.176C226.516 5.54 226.18 6.072 226.012 6.8C225.9 7.304 225.844 8.088 225.844 9.124V25.028H224.892L210.612 7.08ZM235.836 25.028C236.564 25 237.124 24.86 237.572 24.636C237.992 24.412 238.3 24.104 238.524 23.712C238.748 23.32 238.888 22.872 238.944 22.34C239 21.808 239.056 21.192 239.056 20.52V9.152C239.056 8.536 239.028 7.948 238.972 7.388C238.916 6.856 238.776 6.38 238.552 5.988C238.328 5.596 238.02 5.288 237.572 5.064C237.124 4.84 236.536 4.7 235.808 4.644H247.568C248.184 4.644 248.744 4.672 249.248 4.728C249.752 4.784 250.228 4.84 250.704 4.952C251.152 5.064 251.6 5.232 252.048 5.428C252.468 5.652 252.916 5.904 253.392 6.212C254.568 7.024 255.52 8.06 256.248 9.292C256.976 10.524 257.452 11.84 257.732 13.24C257.984 14.64 258.012 16.04 257.816 17.44C257.62 18.84 257.2 20.1 256.528 21.22C255.856 22.34 254.988 23.264 253.868 23.964C252.748 24.692 251.376 25.028 249.808 25.028H235.836ZM242.388 20.128C242.388 20.884 242.416 21.5 242.472 22.004C242.528 22.508 242.696 22.928 243.032 23.32C243.368 23.768 243.816 24.076 244.376 24.244C244.936 24.44 245.552 24.524 246.196 24.524C246.84 24.524 247.484 24.468 248.1 24.328C248.716 24.216 249.22 24.048 249.668 23.824C250.648 23.376 251.488 22.76 252.16 21.976C252.832 21.192 253.364 20.268 253.7 19.204C254.092 17.888 254.288 16.488 254.26 15.032C254.232 13.576 253.98 12.204 253.504 10.916C253 9.628 252.3 8.508 251.348 7.528C250.396 6.548 249.248 5.848 247.848 5.456C247.064 5.26 246.196 5.176 245.216 5.232C244.208 5.288 243.284 5.288 242.388 5.288V20.128ZM271.257 20.492C271.257 21.164 271.285 21.78 271.341 22.312C271.397 22.872 271.565 23.32 271.789 23.712C272.013 24.104 272.321 24.384 272.769 24.608C273.189 24.832 273.777 24.972 274.533 25V25.028H264.705V25C265.433 24.972 266.021 24.832 266.469 24.608C266.917 24.384 267.225 24.048 267.449 23.656C267.645 23.264 267.785 22.816 267.841 22.284C267.897 21.752 267.925 21.164 267.925 20.492V9.124C267.925 8.452 267.897 7.864 267.841 7.304C267.785 6.772 267.645 6.324 267.421 5.932C267.197 5.54 266.861 5.232 266.441 5.008C265.993 4.784 265.433 4.672 264.705 4.616H275.961C276.941 4.616 277.837 4.756 278.621 5.036C279.405 5.316 280.077 5.904 280.693 6.8C281.085 7.416 281.365 8.06 281.477 8.788C281.589 9.516 281.561 10.216 281.393 10.916C281.197 11.616 280.861 12.26 280.385 12.848C279.909 13.436 279.265 13.884 278.481 14.192C278.257 14.304 277.977 14.388 277.697 14.472C277.389 14.584 277.053 14.668 276.689 14.724C277.137 14.92 277.473 15.116 277.753 15.312C278.033 15.508 278.257 15.732 278.453 15.984C278.621 16.236 278.789 16.516 278.957 16.852L279.545 18.056L280.329 19.708L281.197 21.444C281.477 22.004 281.785 22.536 282.065 23.012C282.345 23.488 282.569 23.852 282.793 24.076C283.045 24.412 283.297 24.636 283.549 24.748C283.773 24.888 284.109 24.972 284.529 25V25.028H279.321C279.097 24.608 278.873 24.104 278.649 23.544L277.865 21.752L276.969 19.876C276.661 19.26 276.353 18.672 276.017 18.112C275.681 17.552 275.373 17.076 275.065 16.628C274.729 16.18 274.421 15.844 274.113 15.62C273.665 15.312 273.217 15.144 272.769 15.116C272.293 15.088 271.789 15.06 271.257 15.06V20.492ZM271.257 14.696H272.741C273.189 14.696 273.637 14.668 274.029 14.612C274.421 14.556 274.813 14.444 275.177 14.276C275.513 14.136 275.849 13.912 276.185 13.604C277.025 12.792 277.557 11.812 277.725 10.692C277.893 9.572 277.781 8.508 277.333 7.472C277.025 6.8 276.661 6.296 276.269 5.96C275.849 5.624 275.373 5.372 274.869 5.232C274.365 5.092 273.805 5.008 273.189 5.008C272.573 5.008 271.929 4.98 271.257 4.98V14.696ZM300.967 25L291.279 25.028C292.007 25 292.595 24.86 293.043 24.636C293.463 24.412 293.771 24.076 293.995 23.684C294.191 23.292 294.331 22.844 294.387 22.312C294.443 21.78 294.471 21.192 294.471 20.52V9.152C294.471 8.48 294.443 7.892 294.387 7.332C294.331 6.8 294.191 6.352 293.967 5.96C293.743 5.568 293.407 5.26 292.987 5.036C292.539 4.812 291.979 4.7 291.251 4.644H293.687V4.616H307.715V9.712C307.547 8.592 307.155 7.668 306.567 6.884C305.979 6.1 305.111 5.596 303.991 5.316C303.627 5.26 303.179 5.204 302.647 5.148C302.115 5.12 301.555 5.092 300.995 5.092C300.435 5.092 299.847 5.092 299.287 5.092C298.727 5.092 298.223 5.092 297.831 5.092V14.052H299.343C299.847 14.052 300.295 14.024 300.743 13.912C301.191 13.8 301.583 13.632 301.919 13.352C302.255 13.1 302.507 12.708 302.703 12.148L302.815 11.84C302.871 11.728 302.899 11.588 302.955 11.42V18.504C302.843 17.832 302.703 17.216 302.535 16.712C302.367 16.208 302.115 15.816 301.807 15.48C301.471 15.144 301.079 14.92 300.575 14.752C300.071 14.612 299.455 14.528 298.727 14.528H297.831V18.812C297.831 19.204 297.831 19.568 297.859 19.904C297.859 20.24 297.887 20.548 297.943 20.772C297.999 21.5 298.167 22.088 298.447 22.564C298.699 23.04 299.035 23.432 299.455 23.712C299.847 24.02 300.351 24.244 300.911 24.356C301.471 24.468 302.115 24.524 302.815 24.524C303.515 24.524 304.187 24.468 304.803 24.356C305.419 24.244 305.979 24.076 306.483 23.796C306.987 23.544 307.463 23.18 307.855 22.732C308.247 22.284 308.583 21.752 308.863 21.08C308.975 20.828 309.059 20.52 309.171 20.156C309.283 19.792 309.367 19.4 309.479 18.952V25H300.967ZM299.035 3.552L301.751 0.0799987H304.019L300.631 3.552H299.035ZM317.905 18.644C318.073 19.372 318.325 20.1 318.633 20.8C318.913 21.528 319.277 22.144 319.697 22.704C320.117 23.264 320.621 23.712 321.209 24.048C321.769 24.384 322.441 24.552 323.225 24.552C323.785 24.552 324.317 24.468 324.793 24.244C325.269 24.048 325.661 23.768 325.997 23.432C326.333 23.096 326.585 22.676 326.753 22.2C326.921 21.752 327.033 21.248 327.033 20.688C327.033 19.736 326.809 18.924 326.361 18.308C325.913 17.692 325.381 17.132 324.737 16.684C324.065 16.236 323.365 15.844 322.609 15.48C321.853 15.144 321.153 14.724 320.509 14.276C319.837 13.828 319.305 13.296 318.857 12.652C318.409 12.036 318.213 11.196 318.213 10.188C318.213 9.404 318.353 8.676 318.633 8.004C318.913 7.332 319.305 6.744 319.809 6.24C320.313 5.736 320.873 5.344 321.545 5.064C322.189 4.784 322.889 4.616 323.645 4.616C324.065 4.616 324.485 4.7 324.905 4.812C325.297 4.924 325.689 5.064 326.053 5.204L327.005 5.568C327.285 5.68 327.565 5.736 327.789 5.736C328.125 5.736 328.377 5.512 328.517 5.008V10.412C328.349 9.852 328.125 9.236 327.901 8.592C327.677 7.976 327.369 7.388 327.005 6.856C326.641 6.352 326.193 5.904 325.689 5.568C325.157 5.232 324.513 5.064 323.785 5.064C323.393 5.064 323.001 5.148 322.609 5.26C322.217 5.4 321.853 5.596 321.517 5.876C321.181 6.156 320.929 6.52 320.733 6.94C320.509 7.388 320.425 7.892 320.425 8.452C320.425 9.236 320.677 9.964 321.237 10.58C321.769 11.224 322.525 11.784 323.505 12.232L325.885 13.38C326.669 13.772 327.369 14.248 327.985 14.752C328.601 15.256 329.077 15.872 329.469 16.544C329.833 17.244 330.029 18.084 330.029 19.092C330.029 19.932 329.861 20.688 329.581 21.416C329.273 22.144 328.853 22.788 328.293 23.32C327.733 23.88 327.089 24.3 326.333 24.608C325.549 24.916 324.709 25.056 323.785 25.056C323.169 25.056 322.581 25 321.965 24.86C321.349 24.748 320.761 24.552 320.229 24.3C319.837 24.16 319.557 24.048 319.361 23.936C319.165 23.852 318.969 23.796 318.773 23.796C318.353 23.796 318.073 23.992 317.905 24.356V18.644Z" fill="#AC9883"/>
</svg>
